# xmcd
# Copyright (C) 1995-1998 Ti Kan
#
# Track frame offsets:
#       150
#       18319
#       33667
#       48498
#       61023
#       78394
#       98334
#       128286
#       145651
#       163855
#       179602
#       195541
#
# Disc length: 2812 seconds
#
# Revision: 0
# Processed by: cddbd v1.5.2PL0 Copyright (c) Steve Scherf et al.
# Submitted via: CD-Import v1.0
#
DISCID=910afa0c
DTITLE=Plankton - Elektronisch
DYEAR=2009
DGENRE=
TTITLE0=Hinder De Berge (Play Patrick Remix)
TTITLE1=Für Kein Vorteil (One Shot Orchestra Remix)
TTITLE2=Scheissnatur (Upper Noise Remix)
TTITLE3=Müede Socke (Van Hettinga Remix)
TTITLE4=Alle Warted (Ernst David Remix)
TTITLE5=Elektronisch (Bob Phonic Remix)
TTITLE6=Bitte Nid Ich (Admiral James T. Remix)
TTITLE7=Für Kein Vorteil (Mazz Remix)
TTITLE8=Tête-À-Tête (Bensemann Remix)
TTITLE9=Madame Giraff (Oliver Peter Remix)
TTITLE10=Scheissnatur (Being James Eton Remix)
TTITLE11=Für Kein Vorteil (Matete2000 Remix
EXTD=
EXTT0=
EXTT1=
EXTT2=
EXTT3=
EXTT4=
EXTT5=
EXTT6=
EXTT7=
EXTT8=
EXTT9=
EXTT10=
EXTT11=
PLAYORDER=
